<?xml version="1.0" encoding="UTF-8" standalone="no"?>
<!-- Created with Inkscape (http://www.inkscape.org/) -->

<svg
   width="83.708344mm"
   height="65.792328mm"
   viewBox="0 0 83.708344 65.792328"
   version="1.1"
   id="svg5"
   xml:space="preserve"
   xmlns="http://www.w3.org/2000/svg"
   xmlns:svg="http://www.w3.org/2000/svg"><defs
     id="defs2" /><g
     id="layer1"
     transform="translate(-20.487513,-69.159941)"><g
       id="svgg"
       transform="matrix(0.26458333,0,0,0.26458333,2.1710697,61.398341)"><path
         id="path0"
         d="m 354.228,29.398 c -0.999,0.188 -2.445,0.774 -2.948,1.193 -0.256,0.214 -1.094,0.63 -1.862,0.925 -0.768,0.295 -1.536,0.704 -1.707,0.909 -0.17,0.205 -0.758,0.605 -1.306,0.888 -0.547,0.283 -1.344,0.863 -1.77,1.289 -0.426,0.426 -1.041,0.774 -1.367,0.774 -0.326,0 -0.947,0.278 -1.379,0.618 -0.432,0.34 -1.393,0.901 -2.136,1.246 -0.743,0.345 -2.189,1.104 -3.213,1.685 -1.024,0.582 -2.211,1.226 -2.638,1.432 -4.511,2.177 -7.135,3.547 -9.647,5.036 -0.783,0.465 -1.605,0.844 -1.827,0.844 -0.222,0 -1.546,0.768 -2.942,1.707 -1.397,0.939 -2.684,1.707 -2.862,1.707 -0.178,0 -0.849,0.357 -1.491,0.792 -0.642,0.436 -1.814,1.007 -2.604,1.268 -0.789,0.261 -1.575,0.651 -1.745,0.866 -0.171,0.216 -0.8,0.643 -1.397,0.949 -0.597,0.306 -1.419,0.817 -1.826,1.134 -0.407,0.317 -0.99,0.577 -1.295,0.577 -0.305,0 -0.967,0.346 -1.47,0.769 -0.503,0.424 -1.526,1.062 -2.273,1.419 -0.748,0.357 -2.197,1.125 -3.221,1.707 -2.644,1.501 -5.076,2.811 -6.517,3.51 -0.683,0.331 -1.722,0.965 -2.31,1.408 -0.588,0.444 -1.23,0.806 -1.426,0.806 -0.196,0 -0.59,0.258 -0.876,0.573 -0.285,0.316 -1.108,0.75 -1.828,0.966 -0.721,0.216 -1.693,0.714 -2.16,1.107 -0.467,0.394 -1.281,0.81 -1.809,0.926 -0.528,0.116 -1.029,0.392 -1.114,0.612 -0.084,0.221 -0.798,0.648 -1.585,0.949 -0.787,0.301 -1.915,0.875 -2.506,1.276 -0.591,0.401 -1.369,0.731 -1.729,0.734 -0.361,0.004 -1.234,0.388 -1.94,0.854 -1.393,0.919 -2.584,1.642 -4.763,2.893 -2.616,1.502 -3.261,1.83 -3.604,1.832 -0.189,10e-4 -0.713,0.344 -1.165,0.763 -0.452,0.42 -1.297,0.851 -1.876,0.96 -0.58,0.109 -1.34,0.526 -1.689,0.928 -0.349,0.401 -1.134,0.823 -1.745,0.938 -0.611,0.114 -1.304,0.483 -1.539,0.819 -0.235,0.336 -1.028,0.817 -1.761,1.07 -0.734,0.253 -1.511,0.712 -1.727,1.021 -0.217,0.309 -1.001,0.714 -1.743,0.901 -0.742,0.187 -1.606,0.623 -1.92,0.97 -0.314,0.347 -0.758,0.631 -0.988,0.631 -0.229,0 -0.705,0.288 -1.057,0.64 -0.352,0.352 -1.225,0.922 -1.94,1.266 -2.317,1.117 -4.504,2.351 -5.358,3.023 -0.459,0.361 -0.977,0.656 -1.152,0.656 -0.174,0 -0.748,0.328 -1.277,0.729 -0.528,0.401 -1.483,0.901 -2.124,1.11 -0.64,0.21 -1.163,0.512 -1.163,0.672 0,0.16 -0.664,0.603 -1.474,0.985 -0.811,0.381 -1.614,0.862 -1.785,1.068 -0.17,0.205 -0.938,0.67 -1.706,1.032 -2.467,1.162 -3.957,1.994 -4.567,2.546 -0.326,0.297 -1.074,0.7 -1.66,0.896 -0.586,0.196 -1.415,0.674 -1.842,1.063 -0.426,0.389 -1.369,0.864 -2.094,1.056 -0.726,0.192 -1.319,0.472 -1.319,0.622 0,0.15 -0.663,0.517 -1.474,0.815 -0.811,0.299 -1.753,0.783 -2.095,1.076 -0.341,0.293 -1.109,0.778 -1.706,1.078 -2.117,1.063 -5.574,4.117 -5.581,4.93 -0.003,0.327 -0.369,1.214 -0.813,1.972 -1.303,2.224 -1.465,6.69 -1.394,38.523 0.071,31.472 -0.09,29.263 2.249,30.961 0.742,0.538 2.906,2.492 4.808,4.341 4.624,4.494 6.943,6.62 7.22,6.62 0.637,0 3.816,2.776 11.664,10.188 1.275,1.204 2.576,1.68 2.906,1.063 0.174,-0.325 0.371,-14.953 0.487,-36.232 0.206,-37.492 0.218,-37.913 1.144,-40.275 0.321,-0.817 0.583,-1.895 0.583,-2.397 0,-1.19 2.318,-3.569 3.781,-3.88 0.566,-0.121 1.287,-0.447 1.601,-0.724 0.694,-0.613 2.998,-1.973 4.747,-2.801 0.707,-0.334 1.372,-0.749 1.478,-0.92 0.106,-0.172 0.891,-0.544 1.744,-0.828 0.853,-0.283 1.684,-0.765 1.848,-1.07 0.163,-0.306 0.906,-0.709 1.65,-0.896 0.745,-0.188 1.703,-0.616 2.13,-0.951 0.426,-0.336 1.183,-0.708 1.682,-0.826 0.499,-0.118 1.19,-0.471 1.536,-0.784 0.346,-0.314 1.238,-0.785 1.983,-1.047 0.744,-0.263 1.676,-0.826 2.071,-1.252 0.404,-0.436 1.064,-0.774 1.51,-0.774 0.462,0 1.079,-0.329 1.478,-0.789 0.377,-0.433 1.288,-0.939 2.025,-1.125 0.737,-0.186 1.477,-0.594 1.645,-0.908 0.168,-0.313 0.897,-0.738 1.619,-0.944 0.723,-0.206 1.609,-0.635 1.968,-0.955 0.36,-0.319 1.196,-0.73 1.858,-0.913 0.661,-0.182 1.537,-0.595 1.946,-0.917 0.409,-0.321 1.282,-0.73 1.941,-0.907 0.659,-0.178 1.52,-0.644 1.913,-1.037 0.4,-0.401 1.294,-0.808 2.032,-0.926 0.724,-0.116 1.394,-0.411 1.487,-0.655 0.094,-0.245 0.822,-0.689 1.618,-0.987 0.795,-0.298 1.552,-0.712 1.681,-0.921 0.129,-0.209 0.915,-0.607 1.748,-0.883 0.832,-0.277 1.748,-0.762 2.035,-1.08 0.288,-0.317 0.988,-0.664 1.557,-0.771 0.569,-0.107 1.374,-0.461 1.79,-0.788 0.415,-0.327 1.372,-0.834 2.126,-1.126 0.754,-0.293 1.591,-0.72 1.86,-0.95 0.27,-0.229 0.627,-0.417 0.793,-0.417 0.167,0 0.933,-0.4 1.703,-0.888 0.771,-0.489 1.906,-1.055 2.524,-1.259 0.618,-0.204 1.446,-0.623 1.841,-0.931 0.395,-0.308 1.067,-0.669 1.494,-0.801 0.426,-0.132 1.098,-0.492 1.493,-0.801 0.395,-0.308 1.233,-0.727 1.862,-0.931 0.629,-0.204 1.522,-0.636 1.984,-0.96 0.462,-0.324 1.3,-0.742 1.862,-0.93 0.562,-0.188 1.371,-0.658 1.798,-1.046 0.426,-0.387 1.295,-0.845 1.93,-1.016 0.636,-0.172 1.543,-0.584 2.017,-0.917 0.475,-0.333 1.37,-0.769 1.989,-0.97 0.619,-0.201 1.374,-0.639 1.677,-0.974 0.303,-0.335 0.859,-0.609 1.236,-0.609 0.376,0 1.207,-0.355 1.846,-0.789 0.639,-0.433 1.731,-0.984 2.426,-1.224 0.696,-0.239 1.381,-0.643 1.523,-0.897 0.142,-0.254 1.039,-0.689 1.994,-0.966 0.954,-0.278 2.01,-0.76 2.345,-1.073 0.335,-0.312 0.985,-0.643 1.445,-0.735 0.459,-0.092 1.252,-0.526 1.762,-0.965 0.511,-0.439 1.168,-0.798 1.461,-0.798 0.292,-10e-4 1.009,-0.42 1.593,-0.932 0.583,-0.513 1.508,-1.021 2.054,-1.131 0.547,-0.109 1.069,-0.393 1.16,-0.631 0.092,-0.238 0.536,-0.624 0.988,-0.858 1.411,-0.73 6.765,-6.157 6.982,-7.077 0.111,-0.47 0.327,-0.854 0.481,-0.854 0.316,0 0.794,-1.405 1.105,-3.244 0.114,-0.674 0.509,-1.791 0.879,-2.482 0.649,-1.213 0.676,-1.651 0.77,-12.76 0.104,-12.213 0.096,-12.278 -1.339,-12.007 M 40.39,30.01 c -1.479,1.22 -1.545,6.874 -0.208,17.934 0.248,2.048 0.455,4.611 0.46,5.695 0.007,1.482 0.199,2.33 0.772,3.414 0.419,0.793 0.841,1.83 0.939,2.303 0.097,0.474 0.463,1.148 0.814,1.499 0.351,0.351 0.785,1.08 0.965,1.621 0.181,0.541 0.663,1.333 1.072,1.76 0.409,0.427 1.171,1.247 1.693,1.824 1.238,1.367 3.273,2.903 4.53,3.419 0.55,0.226 1.36,0.745 1.8,1.152 0.44,0.408 1.053,0.742 1.362,0.742 0.308,0 1.073,0.348 1.698,0.772 0.626,0.425 1.47,0.855 1.875,0.957 0.405,0.102 1.033,0.461 1.396,0.799 0.362,0.337 1.12,0.806 1.684,1.042 0.565,0.236 1.201,0.639 1.415,0.897 0.214,0.258 1.153,0.691 2.085,0.962 0.933,0.271 1.77,0.688 1.862,0.927 0.091,0.238 0.577,0.523 1.079,0.634 0.502,0.11 1.317,0.541 1.812,0.957 0.495,0.417 1.52,0.944 2.277,1.172 0.757,0.228 1.675,0.713 2.04,1.078 0.366,0.365 0.924,0.664 1.242,0.664 0.317,0 1.114,0.365 1.77,0.81 0.657,0.446 1.807,0.995 2.556,1.22 0.749,0.225 1.593,0.607 1.875,0.849 0.283,0.241 1.142,0.681 1.91,0.978 0.768,0.297 1.606,0.72 1.862,0.94 0.256,0.22 1.024,0.575 1.707,0.788 0.683,0.213 1.52,0.627 1.862,0.92 0.341,0.293 1.065,0.707 1.608,0.922 0.543,0.214 1.443,0.725 2,1.136 0.556,0.411 1.211,0.747 1.454,0.747 0.243,0 0.919,0.419 1.502,0.931 0.583,0.512 1.385,0.931 1.783,0.931 0.397,0 1.249,0.419 1.893,0.931 0.645,0.512 1.405,0.931 1.689,0.931 0.285,0 0.991,0.349 1.57,0.775 0.578,0.427 1.268,0.777 1.534,0.778 0.265,0 1.111,0.419 1.879,0.929 0.768,0.511 1.608,0.929 1.867,0.93 0.259,10e-4 0.957,0.281 1.551,0.622 0.595,0.341 1.78,0.979 2.633,1.416 0.854,0.437 2.529,1.334 3.724,1.992 1.195,0.659 2.521,1.358 2.948,1.555 2.178,1.003 4.568,2.316 5.12,2.812 0.342,0.307 1.04,0.657 1.552,0.779 0.512,0.122 1.482,0.621 2.156,1.109 0.673,0.488 1.396,0.888 1.605,0.888 0.209,0 0.789,0.343 1.288,0.763 0.499,0.42 1.491,0.895 2.205,1.055 0.759,0.171 1.547,0.609 1.899,1.057 0.366,0.466 1.063,0.843 1.776,0.962 0.655,0.109 1.496,0.539 1.904,0.972 0.444,0.472 1.074,0.776 1.606,0.776 0.481,0 1.269,0.329 1.751,0.731 0.483,0.402 1.384,0.896 2.004,1.098 0.619,0.202 1.374,0.642 1.678,0.977 0.304,0.336 1.124,0.76 1.822,0.942 0.698,0.182 1.424,0.53 1.613,0.772 0.188,0.243 0.949,0.655 1.691,0.917 0.742,0.262 1.565,0.667 1.829,0.902 0.265,0.234 1.319,0.873 2.343,1.419 3.802,2.03 3.862,2.189 4.214,11.157 0.151,3.848 0.485,10.278 0.742,14.289 0.352,5.473 0.469,13.415 0.471,31.826 0.004,27.772 -0.117,26.396 2.182,24.794 2.393,-1.667 2.623,-1.847 3.718,-2.908 0.597,-0.579 1.924,-1.746 2.948,-2.593 1.024,-0.846 2.226,-1.907 2.672,-2.357 0.447,-0.45 1.463,-1.376 2.259,-2.059 2.609,-2.237 3.218,-2.77 5.311,-4.655 1.138,-1.024 3.907,-3.649 6.154,-5.833 l 4.085,-3.972 -0.117,-33.111 -0.116,-33.111 -0.815,-0.967 c -0.448,-0.532 -1.303,-1.626 -1.9,-2.43 -1.607,-2.165 -4.296,-4.517 -5.165,-4.517 -0.248,0 -0.758,-0.328 -1.134,-0.73 -0.376,-0.401 -1.185,-0.822 -1.798,-0.935 -0.612,-0.113 -1.44,-0.553 -1.838,-0.977 -0.399,-0.424 -0.969,-0.771 -1.267,-0.771 -0.299,0 -0.946,-0.339 -1.438,-0.754 -0.493,-0.414 -1.656,-1.117 -2.584,-1.561 -2.538,-1.215 -3.487,-1.745 -4.171,-2.33 -0.342,-0.291 -1.11,-0.712 -1.707,-0.933 -0.597,-0.222 -1.322,-0.669 -1.61,-0.993 -0.289,-0.324 -1.215,-0.794 -2.058,-1.044 -0.843,-0.25 -1.707,-0.664 -1.919,-0.92 -0.212,-0.255 -0.557,-0.464 -0.766,-0.464 -0.21,0 -0.952,-0.414 -1.649,-0.919 -0.697,-0.505 -1.765,-1.126 -2.374,-1.38 -0.608,-0.255 -1.106,-0.598 -1.106,-0.764 0,-0.165 -0.708,-0.536 -1.574,-0.824 -0.865,-0.287 -1.649,-0.719 -1.741,-0.96 -0.093,-0.24 -0.794,-0.595 -1.558,-0.787 -0.765,-0.193 -1.761,-0.654 -2.215,-1.025 -0.454,-0.372 -1.314,-0.87 -1.911,-1.109 -0.597,-0.238 -1.534,-0.718 -2.082,-1.065 -2.706,-1.717 -3.752,-2.29 -4.785,-2.621 -0.62,-0.199 -1.375,-0.636 -1.679,-0.972 -0.303,-0.336 -1.066,-0.749 -1.694,-0.918 -0.628,-0.169 -1.548,-0.657 -2.045,-1.084 -0.497,-0.428 -1.126,-0.777 -1.399,-0.778 -0.272,0 -0.73,-0.26 -1.017,-0.578 -0.288,-0.317 -1.078,-0.827 -1.755,-1.133 -0.678,-0.305 -1.232,-0.676 -1.232,-0.822 0,-0.147 -0.75,-0.599 -1.667,-1.005 -0.917,-0.405 -1.757,-0.882 -1.866,-1.058 -0.109,-0.177 -0.884,-0.549 -1.722,-0.828 -0.839,-0.278 -1.691,-0.707 -1.895,-0.952 -0.203,-0.246 -0.906,-0.591 -1.561,-0.767 -0.655,-0.177 -1.602,-0.666 -2.103,-1.088 -0.502,-0.423 -1.056,-0.768 -1.232,-0.768 -0.176,0 -0.714,-0.327 -1.197,-0.726 -0.482,-0.4 -1.359,-0.891 -1.949,-1.093 -0.59,-0.201 -1.359,-0.619 -1.707,-0.928 -0.349,-0.31 -1.298,-0.807 -2.108,-1.106 -0.811,-0.299 -1.474,-0.652 -1.474,-0.785 0,-0.134 -0.615,-0.478 -1.367,-0.765 -0.751,-0.287 -1.736,-0.864 -2.188,-1.283 -0.452,-0.419 -1.199,-0.762 -1.66,-0.762 -0.529,0 -1.162,-0.343 -1.717,-0.931 -0.483,-0.512 -1.127,-0.931 -1.43,-0.931 -0.304,0 -1.056,-0.384 -1.671,-0.853 -1.881,-1.434 -3.726,-2.479 -4.77,-2.702 -0.547,-0.116 -1.315,-0.461 -1.707,-0.765 -0.392,-0.305 -1.244,-0.728 -1.892,-0.939 -0.649,-0.212 -1.347,-0.655 -1.552,-0.984 -0.205,-0.33 -0.875,-0.735 -1.49,-0.902 -0.615,-0.166 -1.483,-0.64 -1.93,-1.054 -0.446,-0.413 -1.13,-0.851 -1.519,-0.973 -0.39,-0.122 -1.103,-0.552 -1.586,-0.955 -0.482,-0.404 -1.071,-0.734 -1.308,-0.734 -0.237,0 -0.859,-0.419 -1.383,-0.931 -0.679,-0.664 -1.254,-0.931 -2.004,-0.931 -0.651,0 -1.386,-0.279 -1.929,-0.733 -0.482,-0.403 -1.179,-0.828 -1.548,-0.943 -0.369,-0.116 -1.191,-0.624 -1.827,-1.129 -0.636,-0.505 -1.411,-0.919 -1.723,-0.919 -0.312,0 -1.026,-0.401 -1.587,-0.891 -0.56,-0.49 -1.458,-0.987 -1.995,-1.104 -0.537,-0.116 -1.218,-0.478 -1.512,-0.803 -0.294,-0.326 -1.042,-0.757 -1.661,-0.959 -0.62,-0.201 -1.521,-0.695 -2.004,-1.097 -0.482,-0.402 -0.995,-0.731 -1.14,-0.731 -0.144,0 -0.657,-0.329 -1.139,-0.731 -0.483,-0.402 -1.384,-0.896 -2.004,-1.098 -0.619,-0.202 -1.361,-0.627 -1.649,-0.945 -0.288,-0.318 -0.989,-0.666 -1.558,-0.772 -0.569,-0.107 -1.223,-0.423 -1.454,-0.702 -0.23,-0.279 -1.007,-0.768 -1.725,-1.087 -0.718,-0.318 -1.399,-0.73 -1.514,-0.915 -0.114,-0.185 -0.958,-0.668 -1.874,-1.073 -0.917,-0.406 -1.667,-0.864 -1.667,-1.018 0,-0.155 -0.337,-0.365 -0.747,-0.468 -0.411,-0.103 -0.947,-0.264 -1.191,-0.358 -0.243,-0.093 -0.746,0.081 -1.117,0.387 m 7.344,52.471 c -0.457,0.055 -0.997,0.3 -1.199,0.545 -0.488,0.587 -0.246,12.624 0.279,13.903 0.481,1.173 1.285,6.596 1.285,8.672 0,1.261 0.179,1.89 0.758,2.676 0.468,0.634 0.839,1.675 0.97,2.72 0.132,1.062 0.471,2.002 0.91,2.524 0.384,0.457 0.961,1.329 1.28,1.937 1.105,2.101 2.025,3.367 2.574,3.541 0.303,0.096 0.701,0.504 0.884,0.905 0.183,0.402 0.718,0.827 1.19,0.945 0.472,0.119 1.257,0.552 1.746,0.963 0.488,0.411 1.434,0.894 2.101,1.074 0.667,0.18 1.419,0.533 1.671,0.784 0.251,0.252 1.34,0.647 2.419,0.878 1.079,0.231 3.328,1.138 4.998,2.016 2.191,1.151 3.529,1.649 4.809,1.791 0.976,0.107 2.193,0.443 2.705,0.745 0.512,0.303 1.769,0.721 2.792,0.93 1.024,0.209 2.189,0.637 2.59,0.952 0.4,0.315 1.552,0.735 2.559,0.933 1.008,0.199 2.137,0.626 2.511,0.95 0.373,0.324 1.037,0.663 1.475,0.755 0.438,0.091 1.145,0.237 1.572,0.325 0.427,0.087 1.055,0.419 1.396,0.737 0.352,0.328 1.469,0.715 2.578,0.893 1.077,0.174 2.407,0.594 2.957,0.934 0.551,0.34 1.972,0.773 3.159,0.963 1.186,0.189 2.369,0.528 2.628,0.753 0.53,0.461 2.044,0.954 3.874,1.264 0.678,0.114 1.795,0.528 2.483,0.92 0.688,0.391 1.943,0.8 2.79,0.907 0.847,0.107 2.034,0.527 2.638,0.932 0.604,0.405 1.642,0.817 2.306,0.915 0.665,0.099 1.503,0.452 1.862,0.786 0.36,0.334 1.492,0.759 2.516,0.945 1.024,0.186 2.245,0.62 2.713,0.965 0.468,0.344 1.529,0.755 2.359,0.912 0.829,0.158 2.045,0.604 2.703,0.992 0.716,0.422 1.988,0.787 3.17,0.909 1.538,0.16 2.163,0.385 2.824,1.019 0.597,0.571 1.184,0.813 1.973,0.813 0.745,0 1.433,0.261 2.045,0.776 0.507,0.427 1.186,0.776 1.509,0.776 0.324,0 1.141,0.282 1.817,0.626 1.17,0.597 1.249,0.601 1.631,0.078 0.658,-0.9 1.149,-5.176 1.504,-13.121 l 0.202,-4.504 -1.027,-1.972 c -0.742,-1.426 -1.292,-2.084 -1.984,-2.374 -0.527,-0.221 -1.377,-0.762 -1.889,-1.204 -0.512,-0.441 -1.235,-0.802 -1.605,-0.803 -0.371,0 -1.102,-0.36 -1.625,-0.8 -0.523,-0.439 -1.475,-0.944 -2.116,-1.121 -0.64,-0.177 -1.561,-0.655 -2.045,-1.062 -0.484,-0.408 -1.13,-0.741 -1.435,-0.741 -0.305,0 -0.899,-0.27 -1.319,-0.6 -0.42,-0.331 -1.538,-0.944 -2.484,-1.362 -0.947,-0.419 -1.811,-0.906 -1.92,-1.082 -0.109,-0.177 -0.615,-0.413 -1.125,-0.525 -0.51,-0.112 -1.102,-0.443 -1.316,-0.736 -0.213,-0.293 -1.062,-0.786 -1.885,-1.096 -0.823,-0.31 -1.57,-0.754 -1.659,-0.986 -0.089,-0.233 -0.647,-0.514 -1.241,-0.625 -0.593,-0.111 -1.452,-0.514 -1.909,-0.895 -0.457,-0.38 -1.346,-0.86 -1.976,-1.065 -0.629,-0.205 -1.472,-0.631 -1.872,-0.946 -0.401,-0.315 -1.286,-0.723 -1.967,-0.906 -0.682,-0.184 -1.716,-0.686 -2.3,-1.116 -0.583,-0.431 -1.208,-0.783 -1.388,-0.784 -0.18,0 -0.8,-0.404 -1.377,-0.897 -0.577,-0.494 -1.572,-0.981 -2.21,-1.083 -0.638,-0.102 -1.333,-0.395 -1.545,-0.65 -0.432,-0.52 -5.289,-2.955 -5.896,-2.955 -0.214,0 -0.866,-0.419 -1.449,-0.931 -0.583,-0.512 -1.386,-0.93 -1.783,-0.93 -0.397,0 -1.249,-0.419 -1.894,-0.931 -0.644,-0.512 -1.412,-0.931 -1.707,-0.931 -0.295,0 -0.869,-0.259 -1.276,-0.576 -0.407,-0.316 -1.299,-0.755 -1.982,-0.974 -0.682,-0.219 -1.59,-0.639 -2.017,-0.934 -0.427,-0.294 -1.404,-0.838 -2.172,-1.208 -1.371,-0.661 -3.12,-1.573 -4.655,-2.427 -0.427,-0.238 -1.264,-0.635 -1.862,-0.883 -0.597,-0.248 -1.435,-0.657 -1.862,-0.909 -0.426,-0.251 -1.264,-0.672 -1.862,-0.936 -0.597,-0.263 -1.365,-0.643 -1.706,-0.843 -0.342,-0.2 -1.319,-0.76 -2.173,-1.245 -0.853,-0.484 -1.761,-1.002 -2.017,-1.151 -0.256,-0.149 -1.722,-0.867 -3.258,-1.595 -1.536,-0.729 -3.002,-1.499 -3.258,-1.711 -0.256,-0.213 -1.269,-0.687 -2.25,-1.054 -0.981,-0.367 -1.784,-0.77 -1.784,-0.897 0,-0.127 -0.768,-0.55 -1.707,-0.939 -0.939,-0.389 -1.707,-0.825 -1.707,-0.969 0,-0.144 -0.663,-0.355 -1.474,-0.469 -0.811,-0.115 -1.753,-0.37 -2.095,-0.567 -0.341,-0.197 -0.994,-0.314 -1.451,-0.258 m 295.96,0.736 c -0.916,0.175 -1.704,0.536 -1.957,0.897 -0.232,0.331 -0.604,0.603 -0.827,0.603 -0.222,0 -0.916,0.347 -1.542,0.772 -0.626,0.424 -1.518,0.861 -1.983,0.971 -0.465,0.109 -1.194,0.518 -1.621,0.908 -0.427,0.39 -1.347,0.86 -2.045,1.044 -0.698,0.185 -1.514,0.606 -1.812,0.936 -0.298,0.329 -1.103,0.694 -1.789,0.81 -0.686,0.115 -1.521,0.484 -1.856,0.819 -0.335,0.335 -1.126,0.792 -1.758,1.015 -0.632,0.223 -1.689,0.772 -2.349,1.22 -0.66,0.448 -1.38,0.814 -1.599,0.814 -0.219,0 -0.797,0.336 -1.284,0.746 -0.487,0.409 -1.453,0.898 -2.147,1.084 -0.693,0.187 -1.501,0.606 -1.796,0.931 -0.294,0.325 -1.049,0.686 -1.678,0.802 -0.629,0.115 -1.493,0.533 -1.919,0.929 -0.427,0.395 -1.265,0.821 -1.862,0.946 -0.598,0.125 -1.545,0.628 -2.106,1.119 -0.56,0.49 -1.339,0.891 -1.73,0.891 -0.391,0 -1.026,0.335 -1.411,0.745 -0.385,0.41 -1.298,0.896 -2.028,1.08 -0.73,0.184 -1.497,0.539 -1.705,0.789 -0.208,0.25 -1.065,0.684 -1.905,0.963 -0.841,0.279 -1.528,0.624 -1.528,0.767 0,0.143 -0.663,0.507 -1.474,0.809 -0.811,0.302 -1.812,0.806 -2.225,1.12 -0.414,0.315 -1.348,0.722 -2.076,0.905 -0.728,0.184 -1.564,0.599 -1.858,0.924 -0.294,0.324 -1.105,0.741 -1.803,0.926 -0.699,0.186 -1.549,0.581 -1.891,0.88 -0.341,0.298 -1.109,0.73 -1.706,0.96 -0.598,0.229 -1.481,0.74 -1.964,1.136 -0.482,0.395 -1.205,0.719 -1.605,0.719 -0.401,0 -1.123,0.329 -1.605,0.731 -0.483,0.402 -1.436,0.91 -2.119,1.13 -0.683,0.219 -1.346,0.577 -1.475,0.795 -0.129,0.219 -0.897,0.641 -1.707,0.939 -0.81,0.299 -1.752,0.779 -2.093,1.069 -0.342,0.289 -1.081,0.679 -1.643,0.867 -0.562,0.189 -1.4,0.602 -1.862,0.92 -0.462,0.318 -1.329,0.769 -1.926,1.003 -0.597,0.234 -1.435,0.668 -1.862,0.966 -0.426,0.298 -1.353,0.69 -2.058,0.873 -0.706,0.182 -1.45,0.532 -1.653,0.778 -0.204,0.245 -1.056,0.674 -1.895,0.952 -0.838,0.278 -1.598,0.626 -1.689,0.773 -0.09,0.146 -0.895,0.629 -1.788,1.072 -2.96,1.47 -3.478,1.735 -4.26,2.182 -0.427,0.244 -1.489,0.781 -2.36,1.193 -2.906,1.376 -3.034,1.957 -2.696,12.237 0.352,10.69 0.916,12.374 3.504,10.465 0.578,-0.427 1.28,-0.776 1.559,-0.776 0.28,0 1.195,-0.357 2.035,-0.793 0.839,-0.437 2.32,-0.914 3.291,-1.06 0.97,-0.147 2.108,-0.453 2.527,-0.681 3.322,-1.805 5.511,-2.786 6.568,-2.941 0.683,-0.101 1.871,-0.543 2.639,-0.981 0.768,-0.439 2.08,-0.906 2.916,-1.038 0.835,-0.133 1.813,-0.517 2.172,-0.854 0.359,-0.338 1.347,-0.769 2.195,-0.959 0.847,-0.19 1.969,-0.61 2.491,-0.933 0.523,-0.323 1.882,-0.736 3.019,-0.918 2.304,-0.368 3.033,-0.591 3.033,-0.928 0,-0.331 1.47,-0.947 2.265,-0.948 0.376,-0.001 1.521,-0.419 2.545,-0.93 1.024,-0.511 2.305,-0.929 2.847,-0.93 0.594,-0.001 1.347,-0.306 1.897,-0.769 0.644,-0.542 1.452,-0.827 2.74,-0.968 1.004,-0.109 2.384,-0.517 3.067,-0.906 0.683,-0.388 1.868,-0.875 2.635,-1.081 0.766,-0.207 1.772,-0.645 2.234,-0.974 0.482,-0.343 1.709,-0.703 2.872,-0.843 1.415,-0.171 2.248,-0.449 2.747,-0.917 0.397,-0.374 1.46,-0.814 2.388,-0.99 0.92,-0.175 2.017,-0.543 2.437,-0.819 0.421,-0.275 1.596,-0.695 2.613,-0.932 1.016,-0.237 2.197,-0.705 2.623,-1.041 0.427,-0.335 1.458,-0.7 2.291,-0.811 0.921,-0.122 1.851,-0.49 2.371,-0.937 0.487,-0.418 1.257,-0.736 1.787,-0.737 1.215,-0.003 3.289,-0.577 3.879,-1.073 0.256,-0.216 1.103,-0.603 1.882,-0.862 0.779,-0.258 1.812,-0.836 2.295,-1.284 0.483,-0.448 1.068,-0.814 1.301,-0.814 0.654,0 4.677,-4.271 4.91,-5.213 0.114,-0.461 0.532,-1.188 0.93,-1.614 0.431,-0.462 0.875,-1.522 1.098,-2.619 0.206,-1.014 0.64,-2.201 0.963,-2.638 0.452,-0.612 0.656,-1.687 0.886,-4.674 0.164,-2.133 0.511,-4.577 0.771,-5.43 0.362,-1.188 0.474,-3.16 0.476,-8.42 0.004,-8.096 0.227,-7.728 -4.169,-6.889 m -275.372,56.82 c -0.549,1.066 -0.011,9.458 0.674,10.503 0.286,0.436 0.666,1.958 0.844,3.381 0.181,1.444 0.65,3.283 1.061,4.162 0.405,0.867 0.833,2.274 0.951,3.127 0.133,0.964 0.486,1.846 0.932,2.328 0.394,0.426 0.82,1.194 0.947,1.706 0.126,0.512 0.59,1.301 1.03,1.753 0.441,0.452 1.639,1.751 2.663,2.887 3.284,3.641 7.322,5.889 11.152,6.208 1.642,0.137 3.011,0.465 4.109,0.984 1.343,0.635 2.291,0.811 5.14,0.953 2.629,0.131 3.917,0.349 5.201,0.879 0.938,0.388 2.544,0.804 3.568,0.925 1.024,0.12 2.491,0.501 3.259,0.845 1.007,0.452 2.393,0.683 4.969,0.827 2.962,0.166 3.771,0.322 4.724,0.912 0.792,0.489 1.92,0.789 3.612,0.959 1.427,0.144 3.045,0.531 3.85,0.92 0.763,0.37 2.487,0.798 3.831,0.951 1.456,0.166 3.132,0.6 4.149,1.074 1.236,0.575 2.226,0.796 3.586,0.798 1.515,0.002 2.084,0.153 2.931,0.779 3.484,2.57 3.953,1.17 4.104,-12.255 l 0.085,-7.6 -1.706,-0.673 c -0.939,-0.37 -1.856,-0.807 -2.037,-0.97 -0.652,-0.585 -1.661,-1 -2.431,-1 -0.431,0 -1.047,-0.283 -1.37,-0.629 -0.663,-0.712 -2.218,-1.233 -3.679,-1.233 -0.594,0 -1.346,-0.303 -1.891,-0.761 -0.594,-0.5 -1.576,-0.869 -2.864,-1.077 -1.245,-0.2 -2.218,-0.558 -2.669,-0.982 -0.421,-0.395 -1.277,-0.73 -2.107,-0.823 -0.926,-0.105 -1.631,-0.406 -2.09,-0.895 -0.395,-0.42 -1.05,-0.738 -1.523,-0.738 -0.963,0 -2.592,-0.476 -3.743,-1.095 -0.441,-0.237 -1.474,-0.581 -2.295,-0.765 -0.822,-0.185 -1.883,-0.612 -2.359,-0.951 -0.476,-0.339 -1.674,-0.766 -2.664,-0.948 -0.989,-0.183 -2.372,-0.669 -3.073,-1.08 -0.704,-0.413 -1.771,-0.747 -2.387,-0.747 -0.723,0 -1.424,-0.262 -2.003,-0.749 -0.49,-0.413 -1.444,-0.848 -2.119,-0.969 -0.675,-0.12 -1.855,-0.543 -2.623,-0.941 -0.769,-0.397 -1.925,-0.934 -2.571,-1.192 -0.646,-0.259 -1.376,-0.671 -1.622,-0.917 -0.245,-0.246 -1.183,-0.543 -2.083,-0.661 -0.901,-0.119 -2.21,-0.545 -2.91,-0.947 -0.699,-0.403 -2.135,-0.871 -3.189,-1.041 -1.054,-0.17 -2.272,-0.588 -2.706,-0.929 -0.434,-0.342 -1.443,-0.71 -2.242,-0.819 -0.798,-0.109 -2.15,-0.529 -3.003,-0.934 -0.854,-0.405 -2.139,-0.886 -2.857,-1.068 -0.717,-0.182 -1.499,-0.525 -1.737,-0.763 -0.391,-0.391 -1.288,-0.691 -3.658,-1.221 -0.624,-0.139 -0.885,-0.024 -1.161,0.512 m 255.884,-0.097 c -0.64,0.124 -1.415,0.454 -1.722,0.732 -0.308,0.278 -1.502,0.704 -2.654,0.945 -1.151,0.242 -2.36,0.68 -2.685,0.974 -0.325,0.294 -1.534,0.733 -2.685,0.974 -1.152,0.242 -2.332,0.654 -2.621,0.916 -0.29,0.263 -1.254,0.669 -2.142,0.903 -0.887,0.234 -1.868,0.656 -2.179,0.937 -0.32,0.29 -1.487,0.627 -2.698,0.779 -2.282,0.287 -3.635,0.695 -3.941,1.19 -0.104,0.169 -0.711,0.474 -1.349,0.678 -0.637,0.204 -1.458,0.643 -1.823,0.976 -0.378,0.344 -1.382,0.703 -2.328,0.832 -0.915,0.125 -2.304,0.604 -3.087,1.064 -0.783,0.46 -1.747,0.836 -2.142,0.836 -0.395,0 -1.5,0.373 -2.455,0.829 -0.955,0.456 -2.402,0.936 -3.215,1.068 -0.813,0.132 -1.861,0.508 -2.328,0.835 -0.467,0.328 -1.617,0.772 -2.555,0.987 -0.939,0.215 -2.126,0.637 -2.638,0.936 -0.512,0.3 -1.686,0.721 -2.609,0.936 -0.924,0.215 -2.165,0.721 -2.759,1.124 -0.594,0.403 -1.425,0.733 -1.846,0.733 -0.42,0 -1.157,0.33 -1.636,0.733 -0.654,0.551 -1.423,0.788 -3.091,0.952 -1.619,0.159 -2.392,0.391 -2.855,0.853 -0.349,0.349 -1.142,0.772 -1.763,0.94 -0.621,0.168 -1.418,0.572 -1.771,0.898 -0.42,0.387 -1.411,0.689 -2.857,0.87 -2.623,0.33 -5.591,1.697 -6.001,2.765 -0.514,1.341 -0.345,18.232 0.187,18.674 0.842,0.699 8.719,0.295 10.296,-0.527 0.859,-0.449 2.367,-0.793 4.499,-1.026 1.771,-0.194 3.827,-0.624 4.591,-0.961 0.762,-0.335 2.228,-0.691 3.259,-0.79 1.03,-0.099 2.641,-0.505 3.58,-0.903 1.032,-0.437 2.872,-0.842 4.655,-1.026 1.716,-0.176 3.532,-0.57 4.344,-0.941 0.768,-0.35 2.025,-0.642 2.793,-0.647 1.627,-0.013 4.485,-0.718 5.152,-1.271 0.255,-0.211 1.948,-0.5 3.764,-0.642 2.502,-0.195 3.644,-0.435 4.718,-0.99 0.779,-0.403 2.104,-0.823 2.943,-0.935 0.84,-0.111 2.096,-0.531 2.793,-0.933 0.705,-0.407 2.075,-0.823 3.092,-0.937 1.004,-0.114 2.018,-0.315 2.254,-0.447 0.537,-0.3 3.449,-2.816 4.113,-3.554 0.273,-0.302 0.826,-0.891 1.229,-1.308 0.772,-0.8 1.452,-1.922 2.509,-4.147 0.354,-0.743 0.917,-1.699 1.252,-2.126 0.336,-0.426 0.699,-1.284 0.808,-1.907 0.109,-0.623 0.516,-1.691 0.905,-2.374 0.388,-0.682 0.854,-2.197 1.035,-3.366 0.181,-1.169 0.537,-2.441 0.79,-2.828 1.45,-2.213 1.613,-12.823 0.192,-12.539 -0.086,0.017 -0.679,0.132 -1.318,0.256 m -128.201,54.145 c -0.607,0.608 -1.23,1.105 -1.383,1.105 -0.493,0 -4.824,3.546 -7.025,5.754 -0.517,0.518 -2.058,1.904 -3.423,3.078 -2.293,1.971 -5.734,5.08 -7.606,6.87 -0.429,0.41 -0.953,0.745 -1.164,0.745 -0.212,0 -0.385,0.11 -0.385,0.246 0,0.135 -0.488,0.763 -1.086,1.397 -1.62,1.717 -1.474,2.275 1.336,5.104 1.333,1.341 2.973,2.85 3.647,3.352 0.673,0.503 1.335,1.089 1.472,1.303 0.136,0.215 0.425,0.39 0.641,0.39 0.216,0 0.82,0.454 1.342,1.009 0.522,0.554 1.613,1.497 2.423,2.094 0.811,0.598 1.855,1.435 2.32,1.862 0.464,0.427 1.731,1.544 2.814,2.483 1.084,0.938 2.429,2.137 2.99,2.663 2.549,2.393 5.231,2.221 8.147,-0.52 1.098,-1.032 2.39,-2.079 2.871,-2.328 0.481,-0.248 0.874,-0.558 0.874,-0.687 0,-0.13 0.384,-0.467 0.853,-0.749 0.47,-0.283 1.552,-1.163 2.405,-1.956 0.854,-0.793 2.599,-2.363 3.879,-3.49 1.28,-1.126 2.623,-2.336 2.983,-2.688 0.361,-0.353 2.001,-1.754 3.646,-3.114 3.526,-2.916 3.642,-3.287 1.629,-5.219 -2.814,-2.7 -6.721,-6.196 -7.857,-7.031 -0.647,-0.475 -1.826,-1.477 -2.619,-2.225 -2.1,-1.982 -5.237,-4.739 -5.689,-5 -0.214,-0.124 -0.862,-0.668 -1.439,-1.208 -0.898,-0.842 -2.877,-2.42 -4.939,-3.938 -0.482,-0.355 -0.692,-0.266 -1.657,0.698 M 108.8,195.06 c -0.104,0.27 -0.189,2.382 -0.189,4.692 0,4.717 0.214,5.317 2.97,8.317 0.694,0.756 1.951,2.367 2.792,3.58 0.842,1.212 2.31,3.137 3.263,4.277 0.952,1.14 1.906,2.397 2.118,2.794 0.212,0.397 0.584,0.956 0.826,1.241 1.587,1.873 3.076,3.517 5.197,5.738 1.333,1.397 2.688,3.044 3.009,3.659 0.886,1.698 2.26,2.155 3.347,1.113 0.461,-0.441 1.327,-1.01 1.924,-1.263 0.598,-0.253 1.815,-1.133 2.705,-1.956 0.891,-0.823 2.633,-2.403 3.872,-3.513 3.139,-2.809 4.285,-4.01 4.285,-4.491 0,-0.226 0.347,-1.159 0.772,-2.072 0.905,-1.944 1.219,-13.904 0.391,-14.874 -1.084,-1.271 -1.745,-1.527 -4.744,-1.838 -1.989,-0.206 -3.513,-0.547 -4.313,-0.964 -0.799,-0.416 -2.247,-0.741 -4.079,-0.914 -1.561,-0.148 -3.545,-0.547 -4.407,-0.887 -1.086,-0.428 -3.032,-0.732 -6.326,-0.988 -3.166,-0.246 -5.173,-0.552 -5.999,-0.916 -2.617,-1.153 -7.084,-1.595 -7.414,-0.735 m 171.883,0.46 c -1.024,0.334 -3.328,0.752 -5.119,0.928 -2.216,0.218 -3.754,0.552 -4.81,1.043 -0.859,0.399 -2.518,0.816 -3.714,0.932 -1.344,0.132 -2.559,0.458 -3.215,0.863 -0.829,0.513 -1.8,0.699 -4.535,0.868 -2.831,0.175 -3.805,0.369 -5.222,1.039 -0.957,0.453 -2.142,0.824 -2.632,0.824 -1.895,0 -1.978,0.247 -2.263,6.691 -0.143,3.232 -0.353,6.185 -0.467,6.562 -0.456,1.511 0.715,3.889 3.064,6.223 3.344,3.321 6.201,6.016 7.484,7.056 0.632,0.512 1.453,1.242 1.826,1.622 1.108,1.131 2.523,1.249 3.168,0.265 0.294,-0.449 1.143,-1.476 1.887,-2.282 0.744,-0.807 1.354,-1.565 1.356,-1.686 0.003,-0.234 5.445,-6.675 6.798,-8.048 0.444,-0.45 1.297,-1.477 1.894,-2.281 0.597,-0.805 1.251,-1.638 1.451,-1.851 0.201,-0.214 0.62,-0.798 0.931,-1.299 0.311,-0.5 0.811,-1.183 1.11,-1.518 3.683,-4.129 4.225,-5.254 4.777,-9.919 0.783,-6.628 0.322,-7.366 -3.769,-6.032 m -49.031,29.151 c -0.113,0.183 -0.665,0.642 -1.226,1.019 -0.562,0.378 -1.824,1.315 -2.805,2.083 -0.981,0.769 -2.023,1.538 -2.315,1.71 -0.292,0.172 -1.637,1.382 -2.988,2.688 -1.352,1.307 -3.201,2.982 -4.109,3.722 -8.544,6.962 -12.661,10.842 -12.892,12.15 -0.45,2.553 -1.187,21.274 -0.979,24.882 l 0.224,3.879 h 1.172 c 0.688,0 1.34,-0.202 1.577,-0.488 0.223,-0.269 0.958,-0.771 1.634,-1.115 0.675,-0.345 1.383,-0.762 1.572,-0.927 0.189,-0.166 0.712,-0.537 1.162,-0.825 0.449,-0.288 1.621,-1.153 2.603,-1.921 0.982,-0.768 2.235,-1.675 2.785,-2.017 0.549,-0.341 1.473,-0.934 2.051,-1.317 0.579,-0.384 1.288,-0.698 1.575,-0.699 0.287,0 0.614,-0.292 0.727,-0.648 0.113,-0.356 0.611,-0.788 1.107,-0.961 0.496,-0.173 0.902,-0.427 0.902,-0.565 0,-0.138 0.723,-0.788 1.608,-1.444 0.884,-0.656 2.106,-1.574 2.715,-2.039 0.609,-0.466 1.443,-0.994 1.853,-1.174 0.41,-0.181 1.546,-1.021 2.525,-1.869 0.979,-0.848 2.187,-1.716 2.686,-1.929 1.119,-0.479 2.381,-1.46 4.561,-3.545 0.923,-0.883 2.112,-1.829 2.643,-2.104 1.127,-0.583 2.64,-1.638 5.137,-3.583 0.986,-0.768 2.084,-1.563 2.44,-1.767 4.17,-2.389 3.947,-3.687 -1.346,-7.853 -0.759,-0.597 -1.732,-1.434 -2.162,-1.859 -0.431,-0.425 -1.9,-1.736 -3.265,-2.914 -1.366,-1.178 -2.762,-2.406 -3.103,-2.729 -1.245,-1.178 -5.204,-4.29 -5.458,-4.29 -0.144,0 -0.744,-0.424 -1.334,-0.941 -0.668,-0.587 -1.149,-0.817 -1.277,-0.61 m -70.778,1.359 c -1.103,0.354 -5.916,4.089 -8.508,6.603 -1.225,1.189 -6.712,5.559 -7.729,6.157 -3.937,2.313 -3.934,5.202 0.006,7.311 0.386,0.206 0.85,0.494 1.032,0.639 1.583,1.266 2.364,1.847 3.433,2.556 0.683,0.453 1.87,1.309 2.638,1.903 0.768,0.593 1.912,1.359 2.543,1.703 0.631,0.343 1.259,0.8 1.396,1.015 0.421,0.661 4.349,3.573 5.91,4.382 0.471,0.244 1.309,0.877 1.862,1.406 0.553,0.529 1.142,0.962 1.308,0.962 0.458,0 3.159,1.774 4.043,2.655 1.062,1.059 2.595,2.277 4.815,3.828 1.024,0.715 2.49,1.783 3.258,2.372 0.768,0.59 1.885,1.408 2.483,1.818 0.597,0.41 1.798,1.353 2.668,2.096 3.082,2.632 5.985,4.771 6.17,4.547 0.838,-1.015 0.977,-7.381 0.518,-23.714 l -0.202,-7.173 -3.2,-3.145 c -1.761,-1.729 -3.328,-3.144 -3.483,-3.144 -0.293,0 -4.045,-3.092 -5.799,-4.779 -1.536,-1.477 -2.242,-2.104 -3.785,-3.363 -2.867,-2.339 -3.327,-2.722 -5.636,-4.695 -2.613,-2.233 -3.692,-2.598 -5.741,-1.94"
         stroke="none"
         fill="#cfb065"
         fill-rule="evenodd"
         transform="translate(30)" /></g></g></svg>
