<?xml version="1.0" encoding="UTF-8" standalone="no"?>
<!-- Uploaded to: SVG Repo, www.svgrepo.com, Transformed by: SVG Repo Mixer Tools -->

<svg
   fill="#e5a50a"
   version="1.1"
   id="Capa_1"
   width="800px"
   height="800px"
   viewBox="-37.17 -37.17 446.00 446.00"
   xml:space="preserve"
   transform="matrix(1, 0, 0, 1, 0, 0)rotate(0)"
   sodipodi:docname="plane-landing.svg"
   inkscape:version="1.2.2 (b0a8486541, 2022-12-01)"
   xmlns:inkscape="http://www.inkscape.org/namespaces/inkscape"
   xmlns:sodipodi="http://sodipodi.sourceforge.net/DTD/sodipodi-0.dtd"
   xmlns="http://www.w3.org/2000/svg"
   xmlns:svg="http://www.w3.org/2000/svg"><defs
   id="defs18" /><sodipodi:namedview
   id="namedview16"
   pagecolor="#505050"
   bordercolor="#ffffff"
   borderopacity="1"
   inkscape:showpageshadow="0"
   inkscape:pageopacity="0"
   inkscape:pagecheckerboard="1"
   inkscape:deskcolor="#505050"
   showgrid="false"
   inkscape:zoom="1.08875"
   inkscape:cx="447.76119"
   inkscape:cy="400.45924"
   inkscape:window-width="1575"
   inkscape:window-height="1146"
   inkscape:window-x="0"
   inkscape:window-y="0"
   inkscape:window-maximized="1"
   inkscape:current-layer="g12" />

<g
   id="SVGRepo_bgCarrier"
   stroke-width="0" />

<g
   id="SVGRepo_tracerCarrier"
   stroke-linecap="round"
   stroke-linejoin="round"
   stroke="#CCCCCC"
   stroke-width="5.946496000000001" />

<g
   id="SVGRepo_iconCarrier"> <g
   id="g12"> <g
   id="g10"> <g
   id="g8"> <path
   d="m 34.379918,97.308289 c -0.01115,-0.003 -0.02148,-0.009 -0.03403,-0.0125 -4.248216,-1.59689 -9.014527,0.33396 -10.950823,4.440801 -1.94337,4.11991 -0.388244,9.0396 3.569873,11.29367 l 111.590712,63.54927 -42.904505,7.91677 c -3.116779,0.57527 -5.467888,3.15798 -5.748766,6.31532 -0.280135,3.15667 1.578293,6.11412 4.547207,7.22969 l 25.204564,9.47685 c 0.72327,0.2724 1.48702,0.42373 2.26114,0.44747 l 102.30973,3.24124 92.28956,34.52212 c 35.37806,12.69241 43.01519,0.67865 44.5129,-3.30436 1.16162,-3.08825 1.80923,-8.24198 -1.69682,-15.25094 -3.5559,-7.10937 -10.60182,-14.70081 -21.53614,-23.20283 -3.64995,-2.83878 -5.2774,-4.75354 -7.00077,-6.78107 -6.05886,-7.12719 -10.76433,-11.42666 -43.9856,-23.91793 L 105.1024,104.95858 86.248947,32.098047 C 85.537757,29.350718 83.534106,27.12195 80.876156,26.123569 L 69.001988,21.65992 c -2.4441,-0.918955 -5.171077,-0.693861 -7.431261,0.61344 -2.260928,1.307969 -3.816121,3.560104 -4.23793,6.135616 L 45.359111,101.49248 Z"
   id="path4"
   style="display:inline" /> <path
   d="M355.052,282.501H28.948c-9.17,0-16.604,7.436-16.604,16.604s7.434,16.604,16.604,16.604h326.104 c9.17,0,16.604-7.434,16.604-16.604C371.655,289.934,364.222,282.501,355.052,282.501z"
   id="path6" /> </g> </g> </g> </g>

</svg>
