<?xml version="1.0" encoding="UTF-8" standalone="no"?>
<!-- Uploaded to: SVG Repo, www.svgrepo.com, Transformed by: SVG Repo Mixer Tools -->

<svg
   fill="#e5a50a"
   version="1.1"
   id="Capa_1"
   width="800px"
   height="800px"
   viewBox="-37.17 -37.17 446.00 446.00"
   xml:space="preserve"
   transform="matrix(1, 0, 0, 1, 0, 0)rotate(0)"
   sodipodi:docname="takeoff-the-plane-svgrepo-com.svg"
   inkscape:version="1.2.2 (b0a8486541, 2022-12-01)"
   xmlns:inkscape="http://www.inkscape.org/namespaces/inkscape"
   xmlns:sodipodi="http://sodipodi.sourceforge.net/DTD/sodipodi-0.dtd"
   xmlns="http://www.w3.org/2000/svg"
   xmlns:svg="http://www.w3.org/2000/svg"><defs
   id="defs18" /><sodipodi:namedview
   id="namedview16"
   pagecolor="#505050"
   bordercolor="#ffffff"
   borderopacity="1"
   inkscape:showpageshadow="0"
   inkscape:pageopacity="0"
   inkscape:pagecheckerboard="1"
   inkscape:deskcolor="#505050"
   showgrid="false"
   inkscape:zoom="1.08875"
   inkscape:cx="379.3341"
   inkscape:cy="399.54076"
   inkscape:window-width="1444"
   inkscape:window-height="1080"
   inkscape:window-x="0"
   inkscape:window-y="0"
   inkscape:window-maximized="0"
   inkscape:current-layer="Capa_1" />

<g
   id="SVGRepo_bgCarrier"
   stroke-width="0" />

<g
   id="SVGRepo_tracerCarrier"
   stroke-linecap="round"
   stroke-linejoin="round"
   stroke="#CCCCCC"
   stroke-width="5.946496000000001" />

<g
   id="SVGRepo_iconCarrier"> <g
   id="g12"> <g
   id="g10"> <g
   id="g8"> <path
   d="M37.833,212.348c-0.01,0.006-0.021,0.01-0.032,0.017c-4.027,2.093-5.776,6.929-4.015,11.114 c1.766,4.199,6.465,6.33,10.787,4.892l121.85-40.541l-22.784,37.207c-1.655,2.703-1.305,6.178,0.856,8.497 c2.161,2.318,5.603,2.912,8.417,1.449l23.894-12.416c0.686-0.356,1.309-0.823,1.844-1.383l70.785-73.941l87.358-45.582 c33.085-17.835,29.252-31.545,27.29-35.321c-1.521-2.928-4.922-6.854-12.479-8.93c-7.665-2.106-18.021-1.938-31.653,0.514 c-4.551,0.818-7.063,0.749-9.723,0.676c-9.351-0.256-15.694,0.371-47.188,16.736L90.788,164.851l-66.8-34.668 c-2.519-1.307-5.516-1.306-8.035,0.004l-11.256,5.85c-2.317,1.204-3.972,3.383-4.51,5.938c-0.538,2.556,0.098,5.218,1.732,7.253 l46.364,57.749L37.833,212.348z"
   id="path4" /> <path
   d="M355.052,282.501H28.948c-9.17,0-16.604,7.436-16.604,16.604s7.434,16.604,16.604,16.604h326.104 c9.17,0,16.604-7.434,16.604-16.604C371.655,289.934,364.222,282.501,355.052,282.501z"
   id="path6" /> </g> </g> </g> </g>

</svg>
